<svg height='300px' width='300px'  fill="#000000" xmlns="http://www.w3.org/2000/svg" data-name="Layer 2" viewBox="0 0 64 64" x="0px" y="0px"><title>Real Estate 2 - Expanded -  25 - 64 - Stroke 2 - 2020</title><polygon points="14.68 36.7 12.81 35.99 16.18 27 27 27 27 29 17.57 29 14.68 36.7"></polygon><path d="M28.26,48H5.15L8.8,33H15v2H10.38L7.69,46H18.46l2-6h6.5Zm-7.69-2H25.9l-.66-4H21.88Z"></path><polygon points="43 48 27 48 27 46 41 46 41 40.85 39.14 36.21 34.7 34.43 29.68 36.42 25.11 37.33 24.4 40.85 22.44 40.45 23.42 35.63 29.2 34.48 34.7 32.27 40.68 34.67 43 40.46 43 48"></polygon><polygon points="53 35 51 35 51 28.33 48.5 25 42.52 25 38.52 20 33.81 20 28.81 24 23.82 24 22.11 28.57 20.23 27.86 22.44 22 28.11 22 33.11 18 39.48 18 43.48 23 49.5 23 53 27.67 53 35"></polygon><rect x="42" y="46" width="11" height="2"></rect><polygon points="58.87 48 53 48 53 46 56.51 46 54.69 35 49 35 49 33 56.39 33 58.87 48"></polygon><rect x="36" y="28" width="6" height="2"></rect><rect x="35" y="24" width="5" height="2"></rect><rect x="49" y="41" width="3" height="2"></rect></svg>