<svg height='300px' width='300px'  fill="#000000" xmlns="http://www.w3.org/2000/svg" xmlns:xlink="http://www.w3.org/1999/xlink" version="1.1" x="0px" y="0px" viewBox="0 0 62.281 62" style="enable-background:new 0 0 62.281 62;" xml:space="preserve"><g><path d="M61.445,58.659c-0.952-3.81-3.981-6.726-7.791-7.552c-0.861-1.491-2.146-2.631-3.655-3.331V40.67   c6.604-2.709,11-9.194,11-16.375c0-6.229-2.216-12.28-6.241-17.036L49,0.452l-5.759,6.807c-1.423,1.682-2.605,3.527-3.559,5.481   c-0.524-1.968-1.688-3.743-3.343-4.984L36,7.5V6.373C36,2.859,33.141,0,29.627,0c-1.262,0-2.484,0.37-3.535,1.07l-0.979,0.652   C23.833,0.608,22.213,0,20.5,0c-1.879,0-3.646,0.731-4.975,2.061L14.52,3.066l-1.056,0.176C10.298,3.77,8,6.482,8,9.692   c0,1.01,0.239,2.021,0.69,2.925l0.027,0.055C7.008,13.986,6,16.017,6,18.193C6,19.552,6.396,20.865,7.137,22H7   c-2.757,0-5,2.243-5,5v0.697l-1.212,1.818C0.272,30.289,0,31.188,0,32.118c0,2.156,1.461,4.027,3.554,4.551l0.829,0.207   l0.222,0.334C5.769,38.957,7.718,40,9.818,40c1.674,0,3.248-0.652,4.431-1.836l0.292-0.292c1.866-0.652,3.165-2.3,3.407-4.227   L18,33.667v14.296c-0.746,0.651-1.445,1.36-2.093,2.121c-0.614-1.256-1.3-2.477-2.075-3.639L13,45.197l-0.832,1.248   c-0.633,0.949-1.208,1.936-1.734,2.95c-1.826-2.234-4.38-3.804-7.238-4.376l-1.361-0.272l0.295,2.36   C2.666,51.388,2.657,55.721,2.118,60H0v2h62.281L61.445,58.659z M46.528,47h-1.114l-0.288-0.288C44.021,45.607,42.554,45,40.994,45   c-2.228,0-4.23,1.238-5.227,3.23l-0.399,0.798c-2.578,0.232-4.806,1.874-5.781,4.313l-0.015,0.036   c-1.186,0.423-2.244,1.184-3.012,2.21l-1.06,1.413c-0.009,0-0.017,0.002-0.026,0.002c1.023-4.456,2.821-8.643,5.358-12.448   l1.174-1.761l-2.719,0.272c-1.829,0.183-3.606,0.614-5.288,1.265V33.654l4.086-1.788c0.311,1.832,1.579,3.381,3.372,4.007   l0.292,0.291C32.934,37.348,34.507,38,36.182,38c1.93,0,3.724-0.888,4.907-2.386c1.853,2.234,4.216,3.956,6.911,5.058v6.475   C47.519,47.06,47.03,47,46.528,47z M28.768,29.354C28.28,28.866,28,28.19,28,27.5s0.28-1.366,0.768-1.854L30,24.414v-1.172   C30,21.454,31.455,20,33.243,20c0.866,0,1.68,0.337,2.292,0.949L36.585,22H39c1.654,0,3,1.346,3,3v1.303l1.548,2.322   C43.844,29.068,44,29.585,44,30.118c0,1.237-0.838,2.311-2.039,2.611l-1.579,0.395l-0.651,0.977C38.938,35.29,37.611,36,36.182,36   c-1.14,0-2.211-0.444-3.018-1.25l-0.623-0.623L32.162,34c-1.284-0.429-2.148-1.62-2.16-2.972l4.703-2.057l3.848,1.924l0.895-1.789   l-2.357-1.179l2.311-1.011l-0.802-1.832L36,26.221V24h-2v3.096l-5.21,2.28L28.768,29.354z M44.768,8.55L49,3.548l4.232,5.002   C56.952,12.946,59,18.538,59,24.295c0,6.094-3.564,11.628-9,14.201V26.5l3.181-2.385l2.503,0.834l0.633-1.896l-2.051-0.685   l0.684-2.051l-1.897-0.633l-0.901,2.704L50,24v-4.586l3.707-3.707l-1.414-1.414L49,17.586l-3.293-3.293l-1.414,1.414L48,19.414   V38.5c-1.994-0.939-3.751-2.284-5.188-3.956c1.89-0.642,3.188-2.4,3.188-4.426c0-0.93-0.272-1.829-0.788-2.603L44,25.697V25   c0-2.624-2.038-4.758-4.611-4.961C40.139,15.803,41.977,11.848,44.768,8.55z M10.212,14.061l1.077-0.718l-0.81-1.62   C10.166,11.096,10,10.394,10,9.692c0-2.228,1.595-4.111,3.793-4.478l1.688-0.281l1.459-1.459C17.891,2.523,19.155,2,20.5,2   s2.609,0.523,3.561,1.475l0.812,0.813l2.329-1.553C27.922,2.254,28.761,2,29.627,2C32.038,2,34,3.962,34,6.373V8.5l1.139,0.854   C36.931,10.698,38,12.837,38,15.076c0,1.104-0.261,2.21-0.755,3.197l-0.533,1.066C35.751,18.485,34.538,18,33.243,18   C30.352,18,28,20.352,28,23.242v0.344l-0.646,0.646C26.493,25.092,26,26.283,26,27.5c0,0.973,0.327,1.921,0.893,2.705L24,31.471   V19.96c1.021-0.095,1.973-0.518,2.708-1.253l-1.415-1.414C24.837,17.749,24.231,18,23.586,18h-0.172   c-0.645,0-1.251-0.251-1.707-0.707L21,16.585l-0.708,0.708C19.837,17.749,19.231,18,18.586,18h-0.172   c-0.645,0-1.251-0.251-1.707-0.707l-1.415,1.414c0.734,0.735,1.686,1.157,2.708,1.253v5.283C18,22.352,15.648,20,12.757,20   c-1.35,0-2.616,0.517-3.594,1.442l-0.329-0.494C8.289,20.13,8,19.178,8,18.193C8,16.528,8.827,14.983,10.212,14.061z M16,33   c0,1.363-0.869,2.568-2.165,3l-0.376,0.127l-0.624,0.623C12.03,37.556,10.958,38,9.818,38c-1.43,0-2.757-0.71-3.55-1.899   l-0.651-0.977l-1.579-0.395C2.838,34.429,2,33.355,2,32.118c0-0.533,0.156-1.05,0.452-1.493L4,28.303V27c0-1.654,1.346-3,3-3h2.415   l1.049-1.05c0.613-0.613,1.428-0.95,2.293-0.95C14.545,22,16,23.454,16,25.242v1.172l1.232,1.232C17.72,28.134,18,28.81,18,29.5   c0,0.634-0.245,1.25-0.662,1.724L12,29v-3h-2v2.167l-2.615-1.09l-0.77,1.846l2.347,0.978l-2.409,1.205l0.895,1.789l3.955-1.977   L16,32.833V33z M20,19.761c0.351-0.118,0.689-0.273,1-0.478c0.311,0.204,0.649,0.359,1,0.478v25.474   c-0.689,0.357-1.356,0.756-2,1.19V19.761z M28.025,45.263c-2.124,3.589-3.656,7.468-4.566,11.56l-0.117,0.528   c-1.51,0.462-2.85,1.378-3.836,2.65H19.19c0.744-3.89,2.668-7.514,5.508-10.284l-1.396-1.432c-2.29,2.232-4.033,4.974-5.134,7.959   c-0.352-1.394-0.807-2.76-1.344-4.094C19.581,48.535,23.574,46.076,28.025,45.263z M13,48.879c2.011,3.397,3.332,7.208,3.86,11.121   H14v-6h-2v6H9.14C9.668,56.087,10.989,52.276,13,48.879z M4.175,47.354c2.151,0.744,4.012,2.181,5.291,4.081   c-0.318,0.737-0.601,1.489-0.862,2.248c-0.5-1.124-1.086-2.208-1.772-3.237l-1.664,1.109c1.103,1.654,1.941,3.461,2.506,5.369   C7.441,57.94,7.248,58.966,7.118,60H4.116C4.624,55.801,4.661,51.556,4.175,47.354z M22.375,60c0.939-0.641,2.058-1,3.231-1H26.5   l1.659-2.213C28.999,55.668,30.335,55,31.734,55c1.194,0,2.316,0.465,3.16,1.309L36,57.415l1.708-1.708   C38.163,55.251,38.769,55,39.414,55h0.172c0.645,0,1.251,0.251,1.707,0.707l1.415-1.414C41.874,53.459,40.766,53,39.586,53h-0.172   c-1.18,0-2.288,0.459-3.121,1.293l-0.303,0.303c-1.102-0.965-2.484-1.5-3.951-1.568C32.947,51.773,34.396,51,36,51h0.618   l0.938-1.875C38.211,47.814,39.528,47,40.994,47c1.026,0,1.992,0.4,2.718,1.126L44.586,49h1.942c2.377,0,4.515,1.321,5.578,3.447   l0.228,0.455l0.502,0.084c3.252,0.542,5.87,2.959,6.669,6.157L59.719,60H22.375z"></path><path d="M49.204,56c-0.798,0-1.56,0.238-2.204,0.68C46.355,56.238,45.594,56,44.796,56c-1.489,0-2.828,0.827-3.494,2.159   l-0.197,0.394l1.789,0.895l0.197-0.394C43.416,58.403,44.069,58,44.796,58c0.501,0,0.993,0.204,1.349,0.56L47,59.412l0.856-0.854   C48.211,58.204,48.702,58,49.204,58c0.727,0,1.38,0.403,1.705,1.054l0.197,0.394l1.789-0.895l-0.197-0.394   C52.032,56.827,50.693,56,49.204,56z"></path><path d="M45,53.414c0.533-0.535,1.465-0.535,2,0l0.293,0.293l1.414-1.414L48.415,52c-1.289-1.289-3.541-1.289-4.829,0l-0.293,0.293   l1.414,1.414L45,53.414z"></path><path d="M15.294,15.708l1.412-1.416l-0.148-0.147C16.198,13.784,16,13.306,16,12.796c0-0.727,0.404-1.38,1.053-1.705L18,10.619V10   c0-1.103,0.897-2,2-2V6c-1.987,0-3.641,1.456-3.949,3.357C14.783,10.042,14,11.349,14,12.796c0,1.044,0.406,2.025,1.145,2.764   L15.294,15.708z"></path><path d="M25.586,14c0.871,0,1.703-0.25,2.414-0.717C28.711,13.75,29.543,14,30.414,14h0.172c1.18,0,2.288-0.459,3.122-1.293   l-1.415-1.414C31.837,11.749,31.231,12,30.586,12h-0.172c-0.645,0-1.251-0.251-1.707-0.707L28,10.585l-0.708,0.708   C26.837,11.749,26.231,12,25.586,12h-0.172c-0.645,0-1.251-0.251-1.707-0.707l-1.415,1.414C23.126,13.541,24.234,14,25.414,14   H25.586z"></path></g></svg>