<svg height='300px' width='300px'  fill="#000000" xmlns="http://www.w3.org/2000/svg" xmlns:xlink="http://www.w3.org/1999/xlink" xmlns:serif="http://www.serif.com/" viewBox="0 0 100 101" version="1.1" xml:space="preserve" style="" x="0px" y="0px" fill-rule="evenodd" clip-rule="evenodd" stroke-linejoin="round" stroke-miterlimit="2"><path d="M19.677,70.148c-2.961,-1.026 -5.618,-2.193 -7.907,-3.472c-7.051,-3.939 -10.77,-9.144 -10.77,-14.398c-0,-5.254 3.719,-10.459 10.77,-14.398c8.698,-4.859 22.715,-8.112 38.538,-8.112c0.657,-0 1.312,0.006 1.958,0.017c2.602,0.04 5.004,1.404 6.373,3.617c1.369,2.214 1.516,4.972 0.392,7.312c-0.138,0.289 -0.28,0.584 -0.424,0.884c-0.565,1.179 -0.486,2.565 0.21,3.671c0.696,1.106 1.912,1.777 3.219,1.777l29.493,-0c2.563,-0 4.948,1.314 6.317,3.481c1.369,2.167 1.531,4.885 0.428,7.2c-0.023,0.049 -0.047,0.097 -0.073,0.146c-0.206,0.39 -0.38,0.753 -0.56,1.044c-2.326,3.758 -6.941,7.274 -13.354,9.962c-8.63,3.619 -20.665,5.909 -33.979,5.909c-3.462,-0 -6.837,-0.156 -10.089,-0.45c-0.108,1.107 -0.122,2.267 -0.029,3.486c0.083,1.088 -0.291,2.162 -1.033,2.963c-0.742,0.801 -1.784,1.256 -2.875,1.256l-11.764,-0c-1.091,-0 -2.133,-0.455 -2.875,-1.256c-0.742,-0.801 -1.116,-1.875 -1.033,-2.963c0.219,-2.854 -0.152,-5.381 -0.933,-7.676Zm14.643,7.975l1.962,-0c-0.56,-7.299 2.061,-12.809 5.881,-17.644c-4.344,2.987 -7.558,6.665 -9.623,11.045c0.736,1.846 1.305,3.795 1.707,5.845c0.049,0.251 0.073,0.503 0.073,0.754Zm-9.802,-0c0.56,-7.299 -2.061,-12.809 -5.881,-17.644c6.374,4.382 10.314,10.252 11.763,17.644l-5.882,-0Zm16.496,-7.646c3.001,0.256 6.109,0.391 9.294,0.391c21.195,-0 39.017,-5.964 44,-14.014c0.139,-0.225 0.267,-0.51 0.427,-0.813c0.524,-1.1 0.447,-2.391 -0.203,-3.421c-0.651,-1.03 -1.784,-1.654 -3.002,-1.654l-29.494,-0c-2.655,-0 -5.123,-1.363 -6.537,-3.609c-1.413,-2.247 -1.574,-5.062 -0.426,-7.455c0.143,-0.298 0.284,-0.591 0.421,-0.878c0.548,-1.142 0.477,-2.483 -0.189,-3.56c-0.666,-1.077 -1.835,-1.74 -3.1,-1.76c-0.629,-0.01 -1.262,-0.016 -1.897,-0.016c-25.05,-0 -45.388,8.33 -45.388,18.59c-0,4.877 4.596,9.319 12.109,12.636c-0.46,-0.685 -0.952,-1.352 -1.468,-2.005c-1.202,-1.521 -1.111,-3.693 0.214,-5.109c1.325,-1.416 3.485,-1.65 5.083,-0.551c4.05,2.784 7.232,6.099 9.542,9.948c2.31,-3.848 5.492,-7.163 9.542,-9.948c1.598,-1.099 3.758,-0.865 5.083,0.551c1.325,1.416 1.416,3.588 0.214,5.109c-1.812,2.293 -3.326,4.758 -4.225,7.568Zm12.985,-7.294c-0,-0 1.912,-1.001 3.705,-1.94c1.357,-0.71 2.976,-0.71 4.333,-0c0.753,0.394 1.559,0.816 2.311,1.21c2.496,1.306 5.473,1.306 7.969,-0c1.793,-0.938 3.705,-1.939 3.705,-1.939c0.959,-0.502 1.33,-1.687 0.828,-2.646c-0.502,-0.958 -1.687,-1.329 -2.646,-0.827c-0,-0 -1.911,1.001 -3.705,1.939c-1.357,0.71 -2.976,0.71 -4.333,-0c-0.753,-0.394 -1.558,-0.816 -2.311,-1.21c-2.496,-1.306 -5.473,-1.306 -7.969,-0c-1.793,0.939 -3.705,1.94 -3.705,1.94c-0.958,0.501 -1.329,1.687 -0.828,2.645c0.502,0.959 1.687,1.329 2.646,0.828Zm-30.495,-9.119c-0,-0 1.912,-1.001 3.705,-1.939c1.357,-0.711 2.976,-0.711 4.333,-0c0.753,0.394 1.558,0.815 2.311,1.209c2.496,1.307 5.473,1.307 7.969,-0c1.793,-0.938 3.705,-1.939 3.705,-1.939c0.959,-0.502 1.329,-1.687 0.828,-2.646c-0.502,-0.958 -1.687,-1.329 -2.646,-0.827c-0,-0 -1.912,1.001 -3.705,1.939c-1.357,0.711 -2.976,0.711 -4.333,-0c-0.753,-0.394 -1.558,-0.815 -2.311,-1.209c-2.496,-1.307 -5.473,-1.307 -7.969,-0c-1.793,0.938 -3.705,1.939 -3.705,1.939c-0.959,0.502 -1.329,1.687 -0.828,2.645c0.502,0.959 1.687,1.33 2.646,0.828Zm-0,-7.907c-0,-0 1.912,-1.001 3.705,-1.939c1.357,-0.711 2.976,-0.711 4.333,-0c0.753,0.394 1.558,0.815 2.311,1.209c2.496,1.307 5.473,1.307 7.969,-0c1.793,-0.938 3.705,-1.939 3.705,-1.939c0.959,-0.502 1.329,-1.687 0.828,-2.645c-0.502,-0.959 -1.687,-1.33 -2.646,-0.828c-0,-0 -1.912,1.001 -3.705,1.939c-1.357,0.711 -2.976,0.711 -4.333,-0c-0.753,-0.394 -1.558,-0.815 -2.311,-1.209c-2.496,-1.307 -5.473,-1.307 -7.969,-0c-1.793,0.938 -3.705,1.939 -3.705,1.939c-0.959,0.502 -1.329,1.687 -0.828,2.645c0.502,0.959 1.687,1.33 2.646,0.828Zm49.755,-16.56c2.31,-3.849 5.493,-7.164 9.542,-9.949c1.598,-1.099 3.759,-0.864 5.084,0.551c1.324,1.416 1.415,3.588 0.213,5.109c-3.234,4.094 -5.522,8.736 -5.049,14.915c0.084,1.089 -0.291,2.163 -1.032,2.963c-0.742,0.801 -1.785,1.257 -2.876,1.257l-11.763,-0c-1.092,-0 -2.134,-0.456 -2.876,-1.257c-0.742,-0.8 -1.116,-1.874 -1.033,-2.963c0.474,-6.179 -1.814,-10.821 -5.049,-14.915c-1.202,-1.521 -1.111,-3.693 0.214,-5.109c1.325,-1.415 3.486,-1.65 5.083,-0.551c4.05,2.785 7.233,6.1 9.542,9.949Zm-2.14,4.327c-2.065,-4.381 -5.279,-8.059 -9.623,-11.046c3.821,4.835 6.441,10.346 5.882,17.645l1.961,-0c-0,-0.252 0.024,-0.504 0.074,-0.755c0.402,-2.05 0.971,-3.999 1.706,-5.844Zm8.022,6.599c-0.559,-7.299 2.061,-12.81 5.881,-17.645c-6.373,4.383 -10.313,10.252 -11.763,17.645l5.882,-0Z"></path></svg>