<svg height='300px' width='300px'  fill="#000000" xmlns="http://www.w3.org/2000/svg" viewBox="0 0 64 64" x="0px" y="0px"><title>steppe, nature, landscape, grass, meadow</title><path d="M56,39.5v16a.51.51,0,0,1-.5.5H8.5a.51.51,0,0,1-.5-.5v-16a.5.5,0,0,1,.23-.42,26.23,26.23,0,0,1,4.38-2.24.51.51,0,0,1,.66.27.52.52,0,0,1-.28.66,25.93,25.93,0,0,0-4,2V55H55V39.81A16.46,16.46,0,0,0,47.46,38c-.3,0-.62,0-.93,0a16.56,16.56,0,0,0-8.45,2.93A25.3,25.3,0,0,1,41.75,45c.74-.07,1.5-.12,2.28-.12a24.18,24.18,0,0,1,2.52.13,24.88,24.88,0,0,1,5.06,1.09.5.5,0,1,1-.31.95,23.94,23.94,0,0,0-4.85-1A22.46,22.46,0,0,0,44,45.87a26.34,26.34,0,0,0-16.21,6,.5.5,0,1,1-.64-.78,28,28,0,0,1,13.42-6A23.52,23.52,0,0,0,29.34,37a22.1,22.1,0,0,0-6.92-1.1,24,24,0,0,0-4.85.5A.5.5,0,0,1,17,36a.51.51,0,0,1,.39-.59,25,25,0,0,1,5.05-.52A22.85,22.85,0,0,1,29.66,36a23.61,23.61,0,0,1,7.64,4.23A17.57,17.57,0,0,1,46.47,37l1,0a17.65,17.65,0,0,1,8.28,2.09A.5.5,0,0,1,56,39.5ZM15.35,36.41a.51.51,0,0,0-.63-.33l0,0a.49.49,0,0,0-.32.63.5.5,0,0,0,.63.32h0A.51.51,0,0,0,15.35,36.41ZM55.5,22H54v-.5a3.5,3.5,0,0,0-6.72-1.37A2.55,2.55,0,0,0,46.5,20a2.5,2.5,0,0,0-2.45,2H42.5a.5.5,0,0,0,0,1h5a.5.5,0,0,0,0-1H45.09a1.51,1.51,0,0,1,1.41-1,1.42,1.42,0,0,1,.8.23.45.45,0,0,0,.46.05.5.5,0,0,0,.31-.35A2.5,2.5,0,0,1,53,21.5V22h-.5a.5.5,0,0,0,0,1h3a.5.5,0,0,0,0-1Zm-29,4a3.5,3.5,0,0,0-3.22,2.13A2.55,2.55,0,0,0,22.5,28a2.5,2.5,0,0,0-2.45,2H18.5a.5.5,0,0,0,0,1h5a.5.5,0,0,0,0-1H21.09a1.51,1.51,0,0,1,1.41-1,1.42,1.42,0,0,1,.8.23.45.45,0,0,0,.46.05.5.5,0,0,0,.31-.35A2.5,2.5,0,0,1,29,29.5V30h-.5a.5.5,0,0,0,0,1h3a.5.5,0,0,0,0-1H30v-.5A3.48,3.48,0,0,0,26.5,26ZM40,9a3.51,3.51,0,0,0-5.7,1.11A2.55,2.55,0,0,0,33.5,10a2.5,2.5,0,0,0-2.45,2H29.5a.5.5,0,0,0,0,1h5a.5.5,0,0,0,0-1H32.09a1.51,1.51,0,0,1,1.41-1,1.42,1.42,0,0,1,.8.23.45.45,0,0,0,.46,0,.5.5,0,0,0,.31-.35A2.5,2.5,0,0,1,40,11.5V12h-.5a.5.5,0,0,0,0,1h3a.5.5,0,0,0,0-1H41v-.5A3.52,3.52,0,0,0,40,9ZM48,52.5a.5.5,0,0,0,1,0,.5.5,0,0,1,.5-.5.5.5,0,0,0,0-1,1.49,1.49,0,0,0-1,.39,1.49,1.49,0,0,0-1-.39.5.5,0,0,0,0,1A.5.5,0,0,1,48,52.5ZM14.5,50a1.49,1.49,0,0,0-1,.39,1.49,1.49,0,0,0-1-.39.5.5,0,0,0,0,1,.5.5,0,0,1,.5.5.5.5,0,0,0,1,0,.5.5,0,0,1,.5-.5.5.5,0,0,0,0-1ZM21,47.5a.5.5,0,0,0,1,0,.5.5,0,0,1,.5-.5.5.5,0,0,0,0-1,1.49,1.49,0,0,0-1,.39,1.49,1.49,0,0,0-1-.39.5.5,0,0,0,0,1A.5.5,0,0,1,21,47.5ZM27.5,43a.5.5,0,0,1,.5.5.5.5,0,0,0,1,0,.5.5,0,0,1,.5-.5.5.5,0,0,0,0-1,1.49,1.49,0,0,0-1,.39,1.49,1.49,0,0,0-1-.39.5.5,0,0,0,0,1ZM12,16.5A5.5,5.5,0,1,1,17.5,22,5.5,5.5,0,0,1,12,16.5Zm1,0a4.51,4.51,0,1,0,1.32-3.18A4.46,4.46,0,0,0,13,16.5Zm-1.72-5.06a.5.5,0,0,0-.69.11A8.5,8.5,0,1,0,24.7,21a.5.5,0,1,0-.85-.53A7.5,7.5,0,1,1,11.4,12.14.5.5,0,0,0,11.28,11.44ZM17.5,8a8.47,8.47,0,0,0-3.66.83.5.5,0,0,0-.24.66.5.5,0,0,0,.67.24h0A7.51,7.51,0,0,1,25,16.5a7.67,7.67,0,0,1-.22,1.81.5.5,0,1,0,1,.24A8.5,8.5,0,0,0,17.5,8ZM12.19,9.87l0,0a.5.5,0,0,0,.63.78l0,0a.49.49,0,1,0-.62-.77Z"></path></svg>